<?xml version="1.0" encoding="UTF-8" standalone="no"?>
<!-- Created with Inkscape (http://www.inkscape.org/) -->

<svg
   xmlns:dc="http://purl.org/dc/elements/1.1/"
   xmlns:cc="http://creativecommons.org/ns#"
   xmlns:rdf="http://www.w3.org/1999/02/22-rdf-syntax-ns#"
   xmlns:svg="http://www.w3.org/2000/svg"
   xmlns="http://www.w3.org/2000/svg"
   xmlns:sodipodi="http://sodipodi.sourceforge.net/DTD/sodipodi-0.dtd"
   xmlns:inkscape="http://www.inkscape.org/namespaces/inkscape"
   version="1.1"
   id="svg2"
   width="437.8064"
   height="447.23837"
   viewBox="0 0 437.8064 447.23837"
   sodipodi:docname="sssm.svg"
   inkscape:export-filename="/home/fbocolowski/Downloads/sssm.png"
   inkscape:export-xdpi="548.1875"
   inkscape:export-ydpi="548.1875"
   inkscape:version="0.92.4 (unknown)">
  <metadata
     id="metadata8">
    <rdf:RDF>
      <cc:Work
         rdf:about="">
        <dc:format>image/svg+xml</dc:format>
        <dc:type
           rdf:resource="http://purl.org/dc/dcmitype/StillImage" />
        <dc:title></dc:title>
      </cc:Work>
    </rdf:RDF>
  </metadata>
  <defs
     id="defs6" />
  <sodipodi:namedview
     pagecolor="#ffffff"
     bordercolor="#666666"
     borderopacity="1"
     objecttolerance="10"
     gridtolerance="10"
     guidetolerance="10"
     inkscape:pageopacity="0"
     inkscape:pageshadow="2"
     inkscape:window-width="1366"
     inkscape:window-height="713"
     id="namedview4"
     showgrid="false"
     fit-margin-top="0"
     fit-margin-left="0"
     fit-margin-right="0"
     fit-margin-bottom="0"
     inkscape:zoom="0.33119662"
     inkscape:cx="-704.83726"
     inkscape:cy="-115.46713"
     inkscape:window-x="0"
     inkscape:window-y="27"
     inkscape:window-maximized="1"
     inkscape:current-layer="svg2" />
  <path
     style="fill:#000000;stroke-width:3.19325566"
     d="m 10.85677,440.8477 c -16.2907613,-12.81435 -13.9484973,-33.87093 5.012066,-45.05797 10.620995,-6.26654 11.16869,-7.66763 25.70071,-65.74574 16.661548,-66.58882 20.345468,-75.61069 33.692348,-82.51264 23.44704,-12.12494 50.488126,-1.04477 57.910536,23.72905 3.25012,10.8479 2.00495,18.36425 -11.73124,70.81459 -10.41843,39.78178 -17.74091,61.58545 -22.737896,67.70505 -9.35709,11.45917 -9.2589,14.36309 0.61251,18.11619 10.176486,3.8691 22.017506,-0.4695 28.568536,-10.46761 6.02004,-9.18778 53.86025,-183.49364 51.82067,-188.80871 -0.79626,-2.07495 -25.48615,-12.25176 -54.86646,-22.61515 -71.538356,-25.2339 -87.397014,-37.55077 -88.645024,-68.84747 -0.4159,-10.42905 1.45161,-14.59736 11.00576,-24.56504 6.328678,-6.60257 12.545188,-15.597102 13.814488,-19.987842 4.45827,-15.42199 15.04733,-28.8772 29.29885,-37.22913 C 102.44718,48.263907 106.3797,43.262602 115.39908,23.470963 122.22915,8.483358 127.94938,0 131.22528,0 c 13.94623,0 34.58014,18.00475 45.74434,39.915704 3.57951,7.025148 11.29617,16.510854 17.14811,21.079304 14.09797,11.00588 27.95493,37.0994 30.32392,57.101672 1.48259,12.51814 -0.48033,25.22174 -8.74361,56.58713 -8.42618,31.98359 -9.75547,40.74518 -6.35386,41.87903 2.36589,0.78865 15.46373,7.0207 29.1063,13.84903 46.69945,23.3738 78.48674,70.19864 81.94935,120.71684 1.62428,23.69814 2.29484,25.67544 8.70709,25.67544 14.52791,0 41.38979,-10.4393 50.62472,-19.67423 l 9.53503,-9.53503 -2.00495,-43.67229 c -1.31417,-28.62598 -4.97007,-57.42437 -10.61137,-83.58798 -4.73354,-21.95363 -8.55871,-43.98646 -8.50036,-48.96186 0.24077,-20.53422 26.01146,-29.74821 40.93866,-14.63714 9.36086,9.47613 22.46656,53.32901 27.11341,90.72405 5.54138,44.59321 -3.38066,82.85798 -25.08292,107.57547 -5.52239,6.28966 -10.04069,13.70679 -10.04069,16.48257 0,12.78861 -14.51052,42.31783 -26.86641,54.67371 -20.73879,20.73877 -59.64262,28.44159 -61.9447,12.26478 -0.83695,-5.88134 0.95309,-7.33244 11.17639,-9.0603 19.91565,-3.3659 23.25226,-4.80278 34.89871,-15.0285 10.21866,-8.97207 22.32327,-27.10791 19.78624,-29.64488 -0.58733,-0.58734 -8.95582,1.65475 -18.59665,4.98236 -9.64085,3.32767 -22.09358,6.09721 -27.67279,6.15453 -9.12185,0.0939 -10.93069,1.82264 -17.95143,17.15791 -4.59566,10.03827 -12.24522,20.21876 -18.59531,24.74773 -10.18617,7.26494 -13.73288,7.74986 -63.58775,8.69418 -49.88953,0.94499 -53.27773,0.62419 -61.47015,-5.81995 -11.32163,-8.90559 -12.16956,-29.78596 -1.74764,-43.03529 11.9726,-15.2207 22.93409,-17.6066 80.88952,-17.6066 45.46242,0 53.16593,-0.71516 54.84539,-5.0917 3.37998,-8.80823 -5.57386,-48.62642 -15.32067,-68.13147 -13.18735,-26.39023 -39.51133,-51.4356 -66.6693,-63.43101 -19.54273,-8.63185 -22.2526,-9.1366 -23.64369,-4.40421 -0.86416,2.93979 -11.8031,43.31789 -24.30878,89.72916 -24.08382,89.38001 -29.85989,104.66088 -42.75477,113.10995 -11.92223,7.81172 -40.243076,7.1017 -49.189626,-1.23328 -9.64641,-8.98698 -9.54883,-29.41956 0.19601,-41.0795 4.93295,-5.90224 11.59616,-26.24862 21.259506,-64.91668 13.51211,-54.06889 13.86018,-56.64743 8.70787,-64.51087 -6.59655,-10.06754 -23.752306,-11.31824 -31.891156,-2.32495 -2.91968,3.22623 -12.84192,35.48067 -22.0494,71.67655 l -16.740818,65.81069 -11.97471,4.70468 c -11.818008,4.64313 -15.536124,12.22025 -8.216382,16.74411 2.06709,1.27752 12.485102,3.15854 23.151102,4.18003 16.644848,1.59407 19.392778,2.76219 19.392778,8.24373 0,5.69638 -2.43757,6.48659 -22.557828,7.31275 -18.711041,0.7683 -23.959193,-0.17591 -30.775419,-5.53767 z m 231.13941,-12.95147 h 35.18396 l 10.85708,-10.85706 c 5.97137,-5.9714 10.85706,-13.2852 10.85706,-16.25288 0,-4.87897 -4.66427,-5.28777 -48.69715,-4.26794 -38.16121,0.88382 -50.85469,2.29993 -58.66936,6.5452 -9.94586,5.40309 -14.98907,14.8506 -11.19085,20.96401 2.28113,3.67158 15.85537,6.73608 22.22256,5.01693 2.339,-0.63152 20.0855,-1.14826 39.4367,-1.14826 z m 177.99127,-154.8729 c 0.21589,-29.61146 -17.04807,-100.28022 -25.82255,-105.70316 -7.8941,-4.87881 -9.93501,4.97201 -4.82869,23.3067 6.37193,22.87908 13.67561,69.80789 16.7994,107.94251 l 2.35417,28.73931 5.67902,-17.56292 c 3.12346,-9.65959 5.74184,-26.1847 5.81865,-36.72244 z M 197.14195,172.26488 c 4.94244,-18.34701 8.99104,-39.10612 8.99695,-46.13129 0.016,-17.96477 -9.44109,-36.695252 -25.43908,-50.388932 -7.52647,-6.44238 -17.42118,-19.1357 -21.98822,-28.2074 -4.56701,-9.071677 -11.46445,-18.576506 -15.32759,-21.121844 -7.4689,-4.921072 -7.91693,-4.325534 -20.26806,26.941067 -1.53266,3.879887 -8.23318,9.847127 -14.89003,13.260567 -15.897136,8.15165 -24.181546,17.8664 -30.981146,36.330172 -3.13258,8.50622 -9.8506,18.48048 -15.34185,22.77799 -8.16907,6.39328 -9.407458,9.08561 -7.56175,16.43955 3.93687,15.6857 18.82935,24.71404 74.458936,45.1397 29.44718,10.81217 54.84877,19.35707 56.44796,18.98862 1.59922,-0.36843 6.95147,-15.68111 11.89388,-34.0282 z"
     id="path3715"
     inkscape:connector-curvature="0"
     sodipodi:nodetypes="cssscsccscssccccsscsscscsscccscccssccccccccssssccccscscsccscscsssccscssscccscccscccsccsccscccscs" />
</svg>
