<?xml version="1.0" encoding="UTF-8" standalone="no"?>
<!-- Created with Inkscape (http://www.inkscape.org/) -->

<svg
   xmlns:dc="http://purl.org/dc/elements/1.1/"
   xmlns:cc="http://creativecommons.org/ns#"
   xmlns:rdf="http://www.w3.org/1999/02/22-rdf-syntax-ns#"
   xmlns:svg="http://www.w3.org/2000/svg"
   xmlns="http://www.w3.org/2000/svg"
   xmlns:sodipodi="http://sodipodi.sourceforge.net/DTD/sodipodi-0.dtd"
   xmlns:inkscape="http://www.inkscape.org/namespaces/inkscape"
   version="1.1"
   id="svg2"
   width="90.585785"
   height="161.26198"
   viewBox="0 0 90.585786 161.26198">
  <metadata
     id="metadata8">
    <rdf:RDF>
      <cc:Work
         rdf:about="">
        <dc:format>image/svg+xml</dc:format>
        <dc:type
           rdf:resource="http://purl.org/dc/dcmitype/StillImage" />
        <dc:title></dc:title>
      </cc:Work>
    </rdf:RDF>
  </metadata>
  <defs
     id="defs6" />
  <sodipodi:namedview
     pagecolor="#ffffff"
     bordercolor="#666666"
     borderopacity="1"
     objecttolerance="10"
     gridtolerance="10"
     guidetolerance="10"
     inkscape:pageopacity="0"
     inkscape:pageshadow="2"
     inkscape:window-width="1366"
     inkscape:window-height="713"
     id="namedview4"
     showgrid="false"
     inkscape:zoom="2.0462427"
     inkscape:cx="-114.71095"
     inkscape:cy="97.823991"
     inkscape:window-x="0"
     inkscape:window-y="27"
     inkscape:window-maximized="1"
     inkscape:current-layer="svg2" />
  <path
     style="fill:#000000;stroke-width:1.33333337"
     d="m 56.585796,155.83046 c -11,-2.87241 -23.76778,-7.07176 -28.372836,-9.33186 C 17.096209,141.04264 7.6511955,131.45489 3.7312775,121.64694 0.74077355,114.16446 0.63269555,112.45382 0.19375355,65.655635 -0.23683045,19.748455 -0.12840945,17.08736 2.4060175,11.357867 6.8704385,1.2653031 16.699923,-2.5664189 27.041397,1.7545271 c 2.403472,1.004233 9.134199,5.688673 14.957169,10.4098639 5.82298,4.721192 11.23142,8.969561 12.01876,9.440821 0.78735,0.47126 5.044757,-0.267725 9.460917,-1.642188 4.41615,-1.374464 12.32197,-2.922005 17.56846,-3.438982 l 9.539085,-0.939958 v 9.423918 9.423916 l -6.33333,0.814581 C 73.937193,36.573228 66.341883,38.564473 59.161153,41.824626 L 52.403186,44.892841 36.878046,32.410743 C 28.339217,25.54559 21.030304,19.928646 20.636017,19.928646 c -0.394286,0 -0.716884,20.419271 -0.716884,45.376159 0,35.094595 0.40817,46.353045 1.801392,49.687495 2.214869,5.30094 10.243017,12.51899 17.464201,15.70196 7.00508,3.08772 42.057737,11.90106 47.333232,11.90106 h 4.06783 v 9.33333 9.33333 l -7,-0.10453 c -3.849995,-0.0575 -15.999995,-2.45463 -26.999992,-5.32704 z m 21.317757,-26.58569 c -5.86832,-6.48441 -1.01699,-15.98279 8.163285,-15.98279 h 4.51895 v 9.33334 9.33333 h -5.12668 c -3.444315,0 -5.923735,-0.88073 -7.555555,-2.68388 z M 44.452466,94.061978 c -3.65319,-3.65318 -4.53333,-5.57482 -4.53333,-9.8977 0,-15.64982 21.540187,-20.306213 27.537417,-5.95282 4.16083,9.95827 -2.99162,20.36659 -14.004087,20.37887 -3.3059,0.004 -5.64476,-1.17311 -9,-4.52835 z"
     id="path3715"
     inkscape:connector-curvature="0" />
  <text
     xml:space="preserve"
     style="font-style:normal;font-weight:normal;font-size:40px;line-height:1.25;font-family:sans-serif;letter-spacing:0px;word-spacing:0px;fill:#000000;fill-opacity:1;stroke:none"
     x="52.334469"
     y="5.471127"
     id="text3719"><tspan
       sodipodi:role="line"
       id="tspan3717"
       x="52.334469"
       y="40.861755" /></text>
</svg>
